# xmcd
#
# Track frame offsets:
# 182
# 17537
# 35487
# 52602
# 65075
# 79807
# 96640
# 120795
# 140025
# 154945
# 174710
# 191745
# 210132
# 224740
# 239602
# 261690
# 276927
# 292597
# 312197
# 326292
#
# Disc length: 4611 seconds
#
#
# Revision: 1
# Processed by: cddbd v1.5.1PL2 Copyright (c) Steve Scherf et al.
# Submitted via: FreeRIP 2.944 
#
DISCID=29120114
DTITLE=Various Artist - Blue Sax
DYEAR=1999
DGENRE=Jazz
TTITLE0=Baker Street
TTITLE1=Just The Way You Are
TTITLE2=Body and Soul
TTITLE3=I Dream
TTITLE4=Wonderful World
TTITLE5=Unforgettable
TTITLE6=True
TTITLE7=Think Twice
TTITLE8=All That I Need
TTITLE9=Every Time We Say Goodbye
TTITLE10=Misty Blue
TTITLE11=Killing Me Softly With His Song
TTITLE12=I Just Called To Say I Love You
TTITLE13=Lily Was Here
TTITLE14=Kiss From A Rose
TTITLE15=Songbird
TTITLE16=Holding Back The Years
TTITLE17=Careless Whisper
TTITLE18=How Deep Is Your Love
TTITLE19=Don't Let The Sun Go Down On Me
EXTD=YEAR: 1999
EXTT0=
EXTT1=
EXTT2=
EXTT3=
EXTT4=
EXTT5=
EXTT6=
EXTT7=
EXTT8=
EXTT9=
EXTT10=
EXTT11=
EXTT12=
EXTT13=
EXTT14=
EXTT15=
EXTT16=
EXTT17=
EXTT18=
EXTT19=
PLAYORDER=
